HIERARCHY
ROOT Hips
{
	OFFSET 4.076200 -17.275196 43.303001
	CHANNELS 6 Xposition Yposition Zposition Zrotation Xrotation Yrotation
	JOINT Chest
	{
		OFFSET -0.689800 0.941999 5.341000
		CHANNELS 6 Xposition Yposition Zposition Zrotation Xrotation Yrotation
		JOINT Chest2
		{
			OFFSET 0.000000 0.000000 4.278900
			CHANNELS 6 Xposition Yposition Zposition Zrotation Xrotation Yrotation
			JOINT Neck
			{
				OFFSET 0.000000 0.000000 9.970299
				CHANNELS 6 Xposition Yposition Zposition Zrotation Xrotation Yrotation
				JOINT Head
				{
					OFFSET 0.000000 0.000002 2.173901
					CHANNELS 6 Xposition Yposition Zposition Zrotation Xrotation Yrotation
					End Site
					{
						OFFSET 0.000000 0.000000 6.488197
					}
				}
			}
			JOINT LeftCollar
			{
				OFFSET 2.472300 -0.285801 5.433899
				CHANNELS 6 Xposition Yposition Zposition Zrotation Xrotation Yrotation
				JOINT LeftShoulder
				{
					OFFSET 5.327700 0.000000 0.000000
					CHANNELS 6 Xposition Yposition Zposition Zrotation Xrotation Yrotation
					JOINT LeftElbow
					{
						OFFSET 0.000000 0.000000 -10.713001
						CHANNELS 6 Xposition Yposition Zposition Zrotation Xrotation Yrotation
						JOINT LeftWrist
						{
							OFFSET 0.000000 -0.000002 -13.396900
							CHANNELS 6 Xposition Yposition Zposition Zrotation Xrotation Yrotation
							End Site
							{
								OFFSET 0.000000 0.000000 -2.173901
							}
						}
					}
				}
			}
			JOINT RightCollar
			{
				OFFSET -2.589400 -1.358400 6.105000
				CHANNELS 6 Xposition Yposition Zposition Zrotation Xrotation Yrotation
				JOINT RightShoulder
				{
					OFFSET -4.580200 0.000000 0.000000
					CHANNELS 6 Xposition Yposition Zposition Zrotation Xrotation Yrotation
					JOINT RightElbow
					{
						OFFSET 0.000000 0.000000 -10.761101
						CHANNELS 6 Xposition Yposition Zposition Zrotation Xrotation Yrotation
						JOINT RightWrist
						{
							OFFSET 0.000000 -0.000002 -13.028500
							CHANNELS 6 Xposition Yposition Zposition Zrotation Xrotation Yrotation
							End Site
							{
								OFFSET 0.000000 0.000000 -2.173901
							}
						}
					}
				}
			}
		}
	}
	JOINT LeftHip
	{
		OFFSET 2.532500 0.486900 -2.489700
		CHANNELS 6 Xposition Yposition Zposition Zrotation Xrotation Yrotation
		JOINT LeftKnee
		{
			OFFSET 0.000000 -0.000002 -18.199398
			CHANNELS 6 Xposition Yposition Zposition Zrotation Xrotation Yrotation
			JOINT LeftAnkle
			{
				OFFSET 0.000000 -0.000002 -16.083900
				CHANNELS 6 Xposition Yposition Zposition Zrotation Xrotation Yrotation
				End Site
				{
					OFFSET 0.000000 -8.641399 0.000000
				}
			}
		}
	}
	JOINT RightHip
	{
		OFFSET -2.112700 -0.049900 -2.711102
		CHANNELS 6 Xposition Yposition Zposition Zrotation Xrotation Yrotation
		JOINT RightKnee
		{
			OFFSET 0.000000 -0.000002 -19.127298
			CHANNELS 6 Xposition Yposition Zposition Zrotation Xrotation Yrotation
			JOINT RightAnkle
			{
				OFFSET 0.000000 -0.000002 -14.874901
				CHANNELS 6 Xposition Yposition Zposition Zrotation Xrotation Yrotation
				End Site
				{
					OFFSET 0.000000 -8.198299 0.000000
				}
			}
		}
	}
}
MOTION
Frames: 10
Frame Time: 0.041667
-7.004098 34.643810 42.241802 -355.428400 13.362268 13.663028 -0.689800 0.942004 5.340989 -6.642674 -16.870830 10.342378 -0.000003 -0.000003 4.278899 -9.615030 1.277340 -1.619343 -0.000005 0.000002 9.970294 18.474390 7.159116 -34.382373 -0.000000 0.000004 2.173892 2.919694 1.403921 3.084260 2.472297 -0.285802 5.433900 -22.929345 12.226727 -26.885855 5.327701 -0.000002 0.000001 -71.644778 -44.140903 -29.959822 0.000008 0.000000 -10.712997 -2.133179 -9.426721 13.708295 0.000005 -0.000003 -13.396896 174.051825 10.318723 137.547893 -2.589403 -1.358396 6.105003 -8.155459 -8.596345 15.910538 -4.580200 -0.000001 0.000002 63.670060 -31.758385 138.563597 0.000000 -0.000005 -10.761094 -124.653780 -39.351425 -161.855990 -0.000000 -0.000005 -13.028503 172.505197 172.220652 110.008803 2.532500 0.486903 -2.489710 75.108209 -49.185640 21.422868 0.000003 0.000003 -18.199400 -126.974692 54.141069 89.347706 0.000001 -0.000004 -16.083900 1.384509 50.965185 36.078094 -2.112698 -0.049892 -2.711111 -8.485016 -18.623916 -20.496079 0.000000 0.000003 -19.127306 519.122463 150.629741 -544.541148 -0.000000 0.000001 -14.874900 -0.708166 27.312600 18.835199
-7.007200 34.597702 42.213402 -355.611204 12.947388 13.625824 -0.689801 0.942001 5.340994 -6.337435 -16.475586 10.559592 -0.000002 -0.000002 4.278903 -9.639285 1.186095 -1.624830 -0.000004 -0.000004 9.970299 18.300952 7.291270 -34.406832 -0.000002 -0.000002 2.173891 3.038863 1.322753 2.903554 2.472297 -0.285806 5.433904 -22.905984 12.301697 -26.961885 5.327699 -0.000002 -0.000004 -70.978335 -44.595323 -29.535835 -0.000003 0.000000 -10.713004 -1.750824 -9.430670 13.905618 0.000004 -0.000001 -13.396896 173.113877 10.612586 137.762962 -2.589403 -1.358406 6.105007 -8.142319 -8.604362 15.828601 -4.580202 -0.000001 0.000001 63.435348 -31.727673 138.427717 0.000004 -0.000000 -10.761101 -124.946932 -39.273625 -162.039585 0.000002 0.000001 -13.028500 172.254557 172.161325 109.758702 2.532501 0.486902 -2.489704 75.394230 -49.213135 22.159586 -0.000003 0.000001 -18.199394 -128.779774 53.581400 90.028785 -0.000001 -0.000005 -16.083899 0.271997 51.629338 38.051192 -2.112696 -0.049900 -2.711107 -8.636416 -18.657652 -20.671197 0.000000 0.000001 -19.127296 519.174099 149.652068 -543.815290 -0.000002 -0.000002 -14.874900 -1.202248 26.863930 19.172165
-7.009199 34.559097 42.183697 -355.829934 12.640477 13.582773 -0.689801 0.942004 5.340993 -6.028448 -16.163320 10.810843 -0.000003 -0.000001 4.278896 -9.660366 1.046087 -1.627698 -0.000001 0.000000 9.970301 18.260497 7.238806 -34.617496 -0.000001 0.000006 2.173900 2.931482 1.464659 2.838451 2.472299 -0.285800 5.433906 -22.881214 12.821185 -26.973607 5.327698 -0.000000 -0.000002 -70.713700 -44.901739 -29.837890 0.000002 0.000004 -10.712997 -0.960741 -9.540748 14.205930 -0.000001 -0.000007 -13.396893 172.018560 10.940009 138.009901 -2.589399 -1.358400 6.105002 -7.977046 -8.267583 15.313878 -4.580200 -0.000000 -0.000000 63.286941 -31.404974 138.798856 0.000002 -0.000003 -10.761095 -125.380826 -39.245895 -162.309897 -0.000002 -0.000004 -13.028488 171.820785 172.162609 109.674854 2.532503 0.486906 -2.489704 76.616698 -49.198075 23.862246 -0.000001 0.000001 -18.199396 -131.340440 53.165960 90.974527 0.000001 0.000002 -16.083900 -1.222429 52.364738 40.060402 -2.112699 -0.049894 -2.711111 -8.799774 -18.792700 -20.873034 0.000001 0.000002 -19.127300 518.841715 148.806668 -543.012169 0.000000 -0.000000 -14.874903 -1.313526 26.777248 19.743254
-7.000901 34.516403 42.139397 -356.330286 12.083896 13.394438 -0.689803 0.942008 5.340998 -5.343659 -15.651529 11.276893 -0.000001 -0.000000 4.278904 -9.725438 0.903287 -1.646580 -0.000002 -0.000007 9.970301 18.352341 7.156309 -34.841874 -0.000001 0.000006 2.173891 3.085095 1.560797 2.556404 2.472297 -0.285806 5.433902 -22.774028 12.866081 -26.344748 5.327699 -0.000003 -0.000004 -70.298622 -44.556056 -29.753506 0.000004 0.000002 -10.712994 0.071517 -9.596823 14.607335 0.000002 -0.000003 -13.396896 170.492013 11.294700 138.278477 -2.589402 -1.358404 6.105007 -7.951652 -8.128093 14.880380 -4.580197 0.000001 0.000005 63.418375 -31.250564 139.085574 -0.000004 0.000004 -10.761100 -126.033970 -39.196851 -162.715091 -0.000002 -0.000003 -13.028506 171.083371 172.205379 109.701383 2.532501 0.486906 -2.489707 76.415794 -49.147091 24.326103 -0.000006 -0.000001 -18.199400 -132.556036 53.505820 91.440681 -0.000002 -0.000006 -16.083899 -3.733755 53.788716 41.589736 -2.112702 -0.049890 -2.711106 -8.704080 -18.759745 -20.879439 0.000001 0.000002 -19.127302 518.503538 147.931010 -542.124682 -0.000002 -0.000002 -14.874898 -1.520937 26.635784 20.247942
-6.990601 34.480598 42.097500 -356.848943 11.630583 13.242880 -0.689800 0.941998 5.340997 -4.675810 -15.309389 11.577102 0.000000 0.000003 4.278903 -9.638982 0.802873 -1.631845 -0.000001 -0.000003 9.970302 18.385102 7.146652 -34.951355 0.000002 0.000000 2.173892 2.915476 1.641549 2.563319 2.472298 -0.285804 5.433899 -22.693355 13.060917 -25.974960 5.327700 -0.000010 -0.000005 -69.706206 -44.691485 -29.632294 -0.000001 -0.000003 -10.713002 1.464967 -9.607667 15.243379 0.000001 -0.000003 -13.396896 168.394202 11.625814 138.530634 -2.589399 -1.358401 6.104997 -7.842615 -8.070555 14.764661 -4.580200 0.000003 -0.000004 63.091892 -31.198713 139.092568 0.000002 -0.000003 -10.761096 -126.466335 -39.057252 -162.944476 -0.000005 0.000002 -13.028502 170.502149 172.313078 109.817639 2.532501 0.486896 -2.489704 75.696166 -49.273671 24.646799 -0.000001 -0.000001 -18.199396 -133.688044 53.529490 91.998270 -0.000000 0.000000 -16.083904 -5.980307 54.469857 43.980882 -2.112700 -0.049906 -2.711103 -8.723589 -18.820707 -20.925461 -0.000001 -0.000002 -19.127304 518.679866 146.905020 -541.394562 -0.000001 -0.000002 -14.874897 -1.770646 26.218882 20.114970
-6.969701 34.442200 42.051697 -357.534612 11.212004 13.198360 -0.689800 0.941996 5.340992 -3.880736 -15.019270 11.822166 0.000001 0.000003 4.278895 -9.649249 0.667046 -1.629716 0.000000 -0.000006 9.970295 18.293405 7.230180 -34.982948 0.000000 -0.000001 2.173891 2.829483 1.731630 2.605560 2.472299 -0.285806 5.433894 -22.425762 13.208876 -25.748300 5.327698 -0.000006 -0.000006 -68.972261 -44.979637 -29.210270 -0.000001 0.000000 -10.713007 3.470995 -9.382070 16.046416 0.000002 -0.000000 -13.396899 165.471032 11.985537 138.829537 -2.589399 -1.358405 6.104999 -7.621432 -7.872800 14.412990 -4.580195 -0.000003 0.000001 62.881542 -31.058530 139.322909 -0.000003 -0.000005 -10.761100 -126.691266 -38.858838 -163.028583 -0.000000 -0.000005 -13.028498 170.171376 172.320536 109.736606 2.532504 0.486898 -2.489710 75.138317 -49.483993 25.164247 -0.000001 -0.000001 -18.199398 -135.098587 53.351653 92.620446 0.000000 -0.000000 -16.083897 -8.168009 54.632542 46.777585 -2.112699 -0.049905 -2.711104 -8.696019 -18.920852 -21.048148 0.000001 -0.000002 -19.127293 520.572976 145.503916 -541.035786 -0.000002 0.000000 -14.874902 -2.297822 25.251168 18.352512
-6.955099 34.412205 42.009605 -358.122446 10.767975 13.048870 -0.689800 0.941992 5.340997 -3.164995 -14.640693 12.134263 -0.000001 0.000001 4.278900 -9.581194 0.555316 -1.611235 0.000002 0.000000 9.970296 18.301217 7.206036 -35.144076 -0.000001 -0.000002 2.173889 2.516476 1.702306 2.810889 2.472300 -0.285800 5.433895 -22.206299 13.189620 -25.519159 5.327702 0.000000 -0.000000 -68.863122 -44.886395 -29.141381 -0.000001 -0.000000 -10.712997 5.894110 -9.206384 16.889635 0.000003 -0.000010 -13.396902 162.682101 12.329566 139.116856 -2.589398 -1.358396 6.104998 -7.616683 -8.148271 14.209200 -4.580200 -0.000003 -0.000002 62.768066 -30.984450 139.094398 -0.000001 0.000003 -10.761098 -126.094813 -38.544639 -162.623362 0.000001 0.000001 -13.028510 170.293446 172.561533 109.995566 2.532505 0.486896 -2.489697 74.037953 -49.594502 25.417448 0.000003 -0.000000 -18.199404 -136.251400 52.887111 93.013858 -0.000000 -0.000002 -16.083900 -9.756574 54.542742 49.844200 -2.112699 -0.049899 -2.711095 -8.942096 -19.024254 -21.101468 0.000000 -0.000000 -19.127302 520.663189 144.236411 -540.259767 -0.000001 -0.000003 -14.874901 -2.111240 24.816000 18.026288
-6.919802 34.387005 41.956799 -358.879504 10.488383 12.859388 -0.689798 0.942002 5.340993 -2.313928 -14.473056 12.435713 0.000001 0.000002 4.278901 -9.578252 0.454236 -1.595963 0.000001 -0.000002 9.970303 18.184236 7.329205 -35.106537 -0.000002 0.000001 2.173890 2.470481 1.537320 2.869221 2.472299 -0.285805 5.433897 -21.903628 13.100812 -25.309686 5.327703 -0.000007 0.000004 -68.647527 -44.893918 -28.903578 0.000003 -0.000001 -10.712987 8.513626 -8.825518 17.831930 -0.000001 -0.000001 -13.396901 159.564666 12.660178 139.402112 -2.589399 -1.358403 6.105003 -6.169766 -10.655659 14.493670 -4.580199 -0.000002 0.000004 60.537982 -29.971191 136.169916 -0.000003 -0.000000 -10.761096 -125.609173 -38.302973 -162.323585 -0.000000 -0.000003 -13.028507 170.290058 172.581108 109.984808 2.532503 0.486901 -2.489700 73.566936 -49.632604 26.272200 -0.000002 0.000001 -18.199400 -137.731543 52.020517 93.250387 0.000000 -0.000006 -16.083895 -10.704017 54.242815 52.479386 -2.112699 -0.049898 -2.711102 -9.293365 -19.371588 -21.081625 0.000000 -0.000003 -19.127296 521.279327 142.685124 -539.695211 -0.000001 -0.000003 -14.874898 -2.177917 24.231681 17.799534
-6.879700 34.369705 41.901104 -359.602602 10.188148 12.745324 -0.689801 0.941993 5.340997 -1.513551 -14.277562 12.622593 -0.000002 0.000000 4.278898 -9.616457 0.356063 -1.583681 -0.000000 -0.000008 9.970298 18.087820 7.508608 -35.012175 -0.000000 0.000001 2.173883 2.304452 1.440108 2.970204 2.472296 -0.285806 5.433901 -21.653136 13.146359 -25.087671 5.327701 0.000000 0.000001 -68.155732 -44.967425 -28.572242 0.000000 -0.000006 -10.713002 10.457464 -8.579258 18.717637 0.000002 -0.000002 -13.396900 157.208497 13.154543 139.590147 -2.589399 -1.358403 6.105003 -6.119817 -10.511243 14.323203 -4.580194 0.000000 -0.000001 60.388168 -29.988714 136.184943 -0.000001 -0.000008 -10.761107 -125.162738 -38.050724 -161.918445 -0.000004 -0.000005 -13.028499 170.597498 172.547831 109.852521 2.532500 0.486894 -2.489693 72.762292 -49.738698 26.993423 0.000004 -0.000002 -18.199402 -139.364450 50.589087 93.443647 -0.000000 -0.000003 -16.083900 -10.940365 53.241977 55.773679 -2.112701 -0.049912 -2.711099 -10.428429 -19.512163 -21.292486 0.000000 0.000003 -19.127293 522.598756 141.010048 -539.310753 -0.000002 -0.000001 -14.874899 -2.405397 23.612387 17.943180
-6.828701 34.349308 41.825996 -360.365616 9.815623 12.586335 -0.689800 0.941998 5.340998 -0.654089 -14.002514 12.826099 0.000001 -0.000002 4.278902 -9.762032 0.331655 -1.654634 0.000000 0.000003 9.970308 18.021309 7.597954 -34.842209 -0.000001 0.000002 2.173896 2.408545 1.343104 2.873338 2.472302 -0.285796 5.433904 -21.401010 12.912299 -24.825233 5.327701 -0.000008 -0.000005 -67.872689 -44.869531 -28.183662 0.000001 0.000003 -10.713001 12.676898 -8.195116 19.513261 0.000003 -0.000004 -13.396900 154.268224 13.193464 139.995737 -2.589397 -1.358393 6.105004 -5.972304 -10.461771 14.197810 -4.580194 -0.000002 0.000002 60.446518 -30.097591 136.223110 -0.000003 0.000000 -10.761092 -125.343028 -38.043501 -162.006869 -0.000003 -0.000001 -13.028502 170.446141 172.569333 109.802989 2.532501 0.486895 -2.489703 71.998411 -49.742126 27.765448 -0.000000 0.000000 -18.199390 -140.963275 48.890327 93.335976 -0.000001 0.000003 -16.083897 -11.784103 52.734337 58.559324 -2.112699 -0.049900 -2.711105 -9.619661 -20.113181 -20.809665 -0.000000 0.000002 -19.127296 522.051357 139.525738 -538.985090 -0.000001 -0.000004 -14.874903 -2.563409 23.038004 18.053536
